# File created by Blade
# Date/Time:  Wed Jan 21 19:09:01 2015
#---------------------------------------------------------
:version 1.10
:name HOM
:units
  mass 1.0
  length 1.000000
  angle deg
:documentation
     Acclaim Skeleton File
:root
   axis xyz
   order TX TY TZ RX RY RZ
   position 0.000000 0.000000 0.000000
   orientation 0 0 0
:bonedata
   begin
      id 1
      name RightUpLeg_dum
      direction -1.000000 0.000000 0.000000
      length 3.693983
      axis 0.0 0.0 0.0 xyz
   end
   begin
      id 2
      name LeftUpLeg_dum
      direction 1.000000 0.000000 0.000000
      length 3.693983
      axis 0.0 0.0 0.0 xyz
   end
   begin
      id 3
      name Spine_dum
      direction 0.000000 1.000000 0.000000
      length 2.392956
      axis 0.0 0.0 0.0 xyz
   end
   begin
      id 4
      name RightUpLeg
      direction 0.000000 -1.000000 0.000000
      length 15.795667
      axis 0.0 0.0 0.0 xyz
      dof rx ry rz
   end
   begin
      id 5
      name RightLeg
      direction 0.000000 -1.000000 0.000000
      length 14.766989
      axis 0.0 0.0 0.0 xyz
      dof rx ry rz
   end
   begin
      id 6
      name RightFoot
      direction 0.000000 -0.258819 0.965926
      length 4.962790
      axis 15.0 0.0 0.0 xyz
      dof rx ry rz
   end
   begin
      id 7
      name RightToeBase
      direction 0.000000 0.000000 1.000000
      length 2.952750
      axis 0.0 0.0 0.0 xyz
      dof rx ry rz
   end
   begin
      id 8
      name LeftUpLeg
      direction 0.000000 -1.000000 0.000000
      length 15.795667
      axis 0.0 0.0 0.0 xyz
      dof rx ry rz
   end
   begin
      id 9
      name LeftLeg
      direction 0.000000 -1.000000 0.000000
      length 14.766989
      axis 0.0 0.0 0.0 xyz
      dof rx ry rz
   end
   begin
      id 10
      name LeftFoot
      direction 0.000000 -0.258819 0.965926
      length 4.962790
      axis 15.0 0.0 0.0 xyz
      dof rx ry rz
   end
   begin
      id 11
      name LeftToeBase
      direction 0.000000 0.000000 1.000000
      length 2.952750
      axis 0.0 0.0 0.0 xyz
      dof rx ry rz
   end
   begin
      id 12
      name Spine
      direction 0.000000 1.000000 0.000000
      length 0.000000
      axis 0.0 0.0 0.0 xyz
      dof rx ry rz
   end
   begin
      id 13
      name Spine_dum1
      direction 0.000000 1.000000 0.000000
      length 13.207411
      axis 0.0 0.0 0.0 xyz
   end
   begin
      id 14
      name Spine_dum2
      direction 0.000000 1.000000 0.000000
      length 13.207411
      axis 0.0 0.0 0.0 xyz
   end
   begin
      id 15
      name Spine_dum3
      direction 0.000000 1.000000 0.000000
      length 19.250100
      axis 0.0 0.0 0.0 xyz
   end
   begin
      id 16
      name RightShoulder
      direction -1.000000 0.000000 0.000000
      length 8.140465
      axis 0.0 0.0 90.0 xyz
      dof rx ry rz
   end
   begin
      id 17
      name RightArm
      direction -1.000000 0.000000 0.000000
      length 10.649840
      axis 0.0 0.0 90.0 xyz
      dof rx ry rz
   end
   begin
      id 18
      name RightForeArm
      direction -1.000000 0.000000 0.000000
      length 8.304624
      axis 0.0 0.0 90.0 xyz
      dof ry rz rx
   end
   begin
      id 19
      name RightHand
      direction -1.000000 0.000000 0.000000
      length 0.000000
      axis 0.0 0.0 90.0 xyz
      dof rx ry rz
   end
   begin
      id 20
      name RightHand_dum1
      direction -1.000000 0.000000 0.000000
      length 3.937000
      axis 0.0 0.0 90.0 xyz
   end
   begin
      id 21
      name RightHand_dum2
      direction 0.000000 0.000000 0.000000
      length 0.000000
      axis 0.0 0.0 90.0 xyz
   end
   begin
      id 22
      name RightHandThumb1
      direction 0.000000 0.000000 1.000000
      length 3.937000
      axis 0.0 0.0 90.0 xyz
      dof rx rz ry
   end
   begin
      id 23
      name LeftShoulder
      direction 1.000000 0.000000 0.000000
      length 8.140465
      axis 0.0 0.0 -90.0 xyz
      dof rx ry rz
   end
   begin
      id 24
      name LeftArm
      direction 1.000000 0.000000 0.000000
      length 10.649840
      axis 0.0 0.0 -90.0 xyz
      dof rx ry rz
   end
   begin
      id 25
      name LeftForeArm
      direction 1.000000 0.000000 0.000000
      length 8.304624
      axis 0.0 0.0 -90.0 xyz
      dof ry rz rx
   end
   begin
      id 26
      name LeftHand
      direction 1.000000 0.000000 0.000000
      length 0.000000
      axis 0.0 0.0 -90.0 xyz
      dof rx ry rz
   end
   begin
      id 27
      name LeftHand_dum1
      direction 1.000000 0.000000 0.000000
      length 3.937000
      axis 0.0 0.0 -90.0 xyz
   end
   begin
      id 28
      name LeftHand_dum2
      direction 0.000000 0.000000 0.000000
      length 0.000000
      axis 0.0 0.0 -90.0 xyz
   end
   begin
      id 29
      name LeftHandThumb1
      direction 0.000000 0.000000 1.000000
      length 3.937000
      axis 0.0 0.0 -90.0 xyz
      dof rx rz ry
   end
   begin
      id 30
      name Head
      direction 0.000000 1.000000 0.000000
      length 4.527550
      axis 0.0 0.0 0.0 xyz
      dof rx ry rz
   end
:hierarchy
   begin
      root RightUpLeg_dum LeftUpLeg_dum Spine_dum
      RightUpLeg_dum RightUpLeg
      LeftUpLeg_dum LeftUpLeg
      Spine_dum Spine
      RightUpLeg RightLeg
      RightLeg RightFoot
      RightFoot RightToeBase
      LeftUpLeg LeftLeg
      LeftLeg LeftFoot
      LeftFoot LeftToeBase
      Spine Spine_dum1 Spine_dum2 Spine_dum3
      Spine_dum1 RightShoulder
      Spine_dum2 LeftShoulder
      Spine_dum3 Head
      RightShoulder RightArm
      RightArm RightForeArm
      RightForeArm RightHand
      RightHand RightHand_dum1 RightHand_dum2
      RightHand_dum2 RightHandThumb1
      LeftShoulder LeftArm
      LeftArm LeftForeArm
      LeftForeArm LeftHand
      LeftHand LeftHand_dum1 LeftHand_dum2
      LeftHand_dum2 LeftHandThumb1
   end

# File created by Blade
# Date/Time:  Wed Jan 21 19:08:52 2015
# Frame Rate: 120.000 fps
#------------------------------------------------------
:FULLY-SPECIFIED
:DEGREES
1183
root -7.619972 32.571105 -8.730574 43.847103 10.254344 2.990164
RightUpLeg -35.237278 -10.824278 7.817731
RightLeg -6.430864 -0.000000 0.000000
RightFoot -10.516445 0.327063 20.758022
RightToeBase 18.404053 -0.000000 -0.000000
LeftUpLeg -41.287235 1.982324 -1.724247
LeftLeg 2.926327 -0.000000 -0.000000
LeftFoot -8.283557 -8.061915 -8.322351
LeftToeBase 7.910154 -0.000000 -0.000000
Spine -45.353656 -5.005398 6.120606
RightShoulder -18.806057 3.123915 -31.565036
RightArm -7.914829 -22.272333 94.499576
RightForeArm 18.781630 -0.000000 2.417395
RightHand 15.511081 -0.000000 -6.327040
RightHandThumb1 -24.326973 -0.000000 -32.862282
LeftShoulder -8.771978 10.132287 23.046204
LeftArm 13.024518 20.715476 -87.776173
LeftForeArm 4.868533 -0.000000 6.927844
LeftHand -18.955742 -0.000000 2.590577
LeftHandThumb1 -26.253704 0.000000 33.147579
Head 10.313564 0.631960 4.456742
1184
root -7.630351 32.570666 -8.732149 43.836219 10.235149 2.974847
RightUpLeg -35.224049 -10.735549 7.787335
RightLeg -6.431652 -0.000000 0.000000
RightFoot -10.530291 0.260584 20.752165
RightToeBase 18.411924 -0.000000 -0.000000
LeftUpLeg -41.271323 2.067424 -1.749385
LeftLeg 2.898071 -0.000000 -0.000000
LeftFoot -8.269807 -8.140505 -8.338188
LeftToeBase 7.915528 -0.000000 -0.000000
Spine -45.355142 -4.991416 6.089045
RightShoulder -18.766525 3.202140 -31.558416
RightArm -7.841427 -22.234693 94.528603
RightForeArm 18.618287 -0.000000 2.660126
RightHand 15.518612 -0.000000 -6.370488
RightHandThumb1 -24.326973 -0.000000 -32.862282
LeftShoulder -8.750386 10.096300 23.077939
LeftArm 13.017359 20.687075 -87.829442
LeftForeArm 4.937564 -0.000000 7.012324
LeftHand -18.973087 -0.000000 2.599231
LeftHandThumb1 -26.253704 0.000000 33.147579
Head 10.376408 0.627766 4.522196
1185
root -7.639070 32.570394 -8.736434 43.840438 10.220347 2.956933
RightUpLeg -35.242123 -10.655869 7.765419
RightLeg -6.408910 -0.000000 0.000000
RightFoot -10.549486 0.208459 20.735946
RightToeBase 18.406934 -0.000000 -0.000000
LeftUpLeg -41.269091 2.097423 -1.736491
LeftLeg 2.860845 -0.000000 -0.000000
LeftFoot -8.252067 -8.132744 -8.383965
LeftToeBase 7.910267 -0.000000 -0.000000
Spine -45.360940 -4.973475 6.067227
RightShoulder -18.734799 3.293507 -31.550744
RightArm -7.780936 -22.239129 94.566951
RightForeArm 18.555313 -0.000000 2.927160
RightHand 15.564996 -0.000000 -6.832277
RightHandThumb1 -24.326973 -0.000000 -32.862282
LeftShoulder -8.747043 10.085287 23.093198
LeftArm 13.062071 20.706216 -87.862471
LeftForeArm 4.948997 -0.000000 7.091076
LeftHand -18.956719 -0.000000 2.654062
LeftHandThumb1 -26.253704 0.000000 33.147579
Head 10.411842 0.604706 4.579784
1186
root -7.646571 32.570167 -8.740998 43.840492 10.207521 2.943002
RightUpLeg -35.247924 -10.580419 7.737431
RightLeg -6.404094 -0.000000 0.000000
RightFoot -10.570923 0.160818 20.720147
RightToeBase 18.459857 -0.000000 -0.000000
LeftUpLeg -41.269736 2.117708 -1.721783
LeftLeg 2.840675 -0.000000 -0.000000
LeftFoot -8.241297 -8.133038 -8.419690
LeftToeBase 7.994239 -0.000000 -0.000000
Spine -45.366145 -4.961800 6.045652
RightShoulder -18.691006 3.400392 -31.550330
RightArm -7.719509 -22.182756 94.593892
RightForeArm 18.533433 0.000000 3.144161
RightHand 15.509403 -0.000000 -6.897078
RightHandThumb1 -24.326973 -0.000000 -32.862282
LeftShoulder -8.750451 10.057775 23.102797
LeftArm 13.092926 20.696097 -87.910971
LeftForeArm 4.931082 0.000000 7.149843
LeftHand -18.935478 -0.000000 2.669357
LeftHandThumb1 -26.253704 0.000000 33.147579
Head 10.454397 0.608964 4.631735
1187
root -7.652508 32.569283 -8.743359 43.836215 10.201845 2.935258
RightUpLeg -35.241785 -10.523430 7.714412
RightLeg -6.406243 -0.000000 0.000000
RightFoot -10.588134 0.115871 20.719128
RightToeBase 18.433418 -0.000000 -0.000000
LeftUpLeg -41.255539 2.114489 -1.697909
LeftLeg 2.809264 -0.000000 -0.000000
LeftFoot -8.244943 -8.085411 -8.425275
LeftToeBase 7.854431 -0.000000 -0.000000
Spine -45.362619 -4.946029 6.023554
RightShoulder -18.674101 3.496546 -31.561637
RightArm -7.666843 -22.099055 94.617284
RightForeArm 18.309369 0.000000 3.404630
RightHand 15.579730 -0.000000 -7.174668
RightHandThumb1 -24.326973 -0.000000 -32.862282
LeftShoulder -8.751779 10.045696 23.097793
LeftArm 13.137540 20.737474 -87.951436
LeftForeArm 4.976081 0.000000 7.223023
LeftHand -18.900042 -0.000000 2.714929
LeftHandThumb1 -26.253704 0.000000 33.147579
Head 10.490567 0.578655 4.662058
1188
root -7.662114 32.568162 -8.743322 43.820528 10.201867 2.926788
RightUpLeg -35.219838 -10.470448 7.703035
RightLeg -6.411218 -0.000000 0.000000
RightFoot -10.599782 0.069822 20.708423
RightToeBase 18.440004 -0.000000 -0.000000
LeftUpLeg -41.232372 2.135874 -1.680010
LeftLeg 2.787958 -0.000000 -0.000000
LeftFoot -8.245349 -8.089923 -8.431474
LeftToeBase 7.922269 -0.000000 -0.000000
Spine -45.360447 -4.955647 5.989292
RightShoulder -18.647150 3.589392 -31.550687
RightArm -7.611562 -22.098194 94.654144
RightForeArm 18.280467 -0.000000 3.634425
RightHand 15.608670 0.000000 -7.355877
RightHandThumb1 -24.326973 -0.000000 -32.862282
LeftShoulder -8.745646 10.024973 23.123887
LeftArm 13.142617 20.726019 -88.022870
LeftForeArm 5.041200 -0.000000 7.324217
LeftHand -18.949130 0.000000 2.723630
LeftHandThumb1 -26.253704 0.000000 33.147579
Head 10.540442 0.582723 4.741539
1189
root -7.670274 32.567354 -8.744469 43.817072 10.215551 2.908500
RightUpLeg -35.215767 -10.412073 7.702357
RightLeg -6.407236 -0.000000 0.000000
RightFoot -10.623663 0.009251 20.713925
RightToeBase 18.448075 -0.000000 -0.000000
LeftUpLeg -41.229971 2.122936 -1.622317
LeftLeg 2.774549 -0.000000 -0.000000
LeftFoot -8.258468 -8.077828 -8.441730
LeftToeBase 7.954499 -0.000000 -0.000000
Spine -45.362538 -4.947115 5.977969
RightShoulder -18.646541 3.671629 -31.556005
RightArm -7.547749 -22.123075 94.690407
RightForeArm 18.426625 -0.000000 3.848565
RightHand 15.836174 -0.000000 -7.609402
RightHandThumb1 -24.326973 -0.000000 -32.862282
LeftShoulder -8.748602 10.008732 23.113288
LeftArm 13.189158 20.773561 -88.051157
LeftForeArm 4.972124 -0.000000 7.394221
LeftHand -18.919652 0.000000 2.762091
LeftHandThumb1 -26.253704 0.000000 33.147579
Head 10.582866 0.553911 4.779692
1190
root -7.677234 32.566774 -8.741605 43.799833 10.252134 2.893717
RightUpLeg -35.177568 -10.342009 7.683937
RightLeg -6.418349 -0.000000 0.000000
RightFoot -10.654294 -0.096050 20.699750
RightToeBase 18.424700 -0.000000 -0.000000
LeftUpLeg -41.204985 2.125558 -1.585284
LeftLeg 2.750079 -0.000000 -0.000000
LeftFoot -8.243957 -8.072367 -8.500361
LeftToeBase 7.941369 -0.000000 -0.000000
Spine -45.377526 -4.960017 5.980811
RightShoulder -18.616987 3.739415 -31.567987
RightArm -7.500726 -22.052983 94.722021
RightForeArm 18.482021 -0.000000 4.102658
RightHand 15.817699 -0.000000 -7.656012
RightHandThumb1 -24.326973 -0.000000 -32.862282
LeftShoulder -8.740579 10.003926 23.100374
LeftArm 13.224612 20.744289 -88.127160
LeftForeArm 5.041817 -0.000000 7.446625
LeftHand -18.837506 0.000000 2.772831
LeftHandThumb1 -26.253704 0.000000 33.147579
Head 10.663631 0.545721 4.811737
1191
root -7.685040 32.565823 -8.742313 43.792528 10.286291 2.885100
RightUpLeg -35.170217 -10.305160 7.688527
RightLeg -6.410614 -0.000000 0.000000
RightFoot -10.687107 -0.149096 20.684024
RightToeBase 18.403869 -0.000000 -0.000000
LeftUpLeg -41.204418 2.161938 -1.581505
LeftLeg 2.746756 -0.000000 -0.000000
LeftFoot -8.235087 -8.146568 -8.521210
LeftToeBase 8.021611 -0.000000 -0.000000
Spine -45.378710 -4.967816 5.977051
RightShoulder -18.619940 3.808390 -31.590898
RightArm -7.427670 -22.030348 94.783759
RightForeArm 18.552767 -0.000000 4.337007
RightHand 15.755517 -0.000000 -8.119617
RightHandThumb1 -24.326973 -0.000000 -32.862282
LeftShoulder -8.732033 9.944591 23.083470
LeftArm 13.221884 20.848317 -88.162279
LeftForeArm 5.048259 0.000000 7.534592
LeftHand -18.941183 -0.000000 2.790281
LeftHandThumb1 -26.253704 0.000000 33.147579
Head 10.711621 0.516790 4.836669
1192
root -7.693047 32.565377 -8.743653 43.794070 10.317091 2.890224
RightUpLeg -35.173775 -10.260816 7.674252
RightLeg -6.396085 -0.000000 0.000000
RightFoot -10.737561 -0.229007 20.661284
RightToeBase 18.462798 -0.000000 -0.000000
LeftUpLeg -41.210942 2.150760 -1.555704
LeftLeg 2.739613 -0.000000 -0.000000
LeftFoot -8.230095 -8.138538 -8.564280
LeftToeBase 7.917914 -0.000000 -0.000000
Spine -45.390157 -4.989002 5.954076
RightShoulder -18.600224 3.884461 -31.611251
RightArm -7.394294 -21.937614 94.828984
RightForeArm 18.568469 -0.000000 4.561475
RightHand 15.896039 0.000000 -8.189399
RightHandThumb1 -24.326973 -0.000000 -32.862282
LeftShoulder -8.723289 9.898771 23.082658
LeftArm 13.222250 20.869497 -88.234257
LeftForeArm 5.081807 -0.000000 7.591060
LeftHand -18.869958 -0.000000 2.762393
LeftHandThumb1 -26.253704 0.000000 33.147579
Head 10.773413 0.498323 4.876016
1193
root -7.700625 32.565703 -8.746134 43.787516 10.352863 2.873811
RightUpLeg -35.186308 -10.276365 7.729881
RightLeg -6.376105 -0.000000 0.000000
RightFoot -10.734585 -0.226087 20.648263
RightToeBase 18.487848 -0.000000 -0.000000
LeftUpLeg -41.216240 2.177590 -1.531650
LeftLeg 2.732448 -0.000000 -0.000000
LeftFoot -8.201541 -8.191284 -8.579202
LeftToeBase 7.961518 -0.000000 -0.000000
Spine -45.392451 -4.994035 5.950367
RightShoulder -18.585407 3.958916 -31.621607
RightArm -7.367088 -21.832673 94.866083
RightForeArm 18.481090 -0.000000 4.862219
RightHand 15.764589 -0.000000 -8.639846
RightHandThumb1 -24.326973 -0.000000 -32.862282
LeftShoulder -8.710110 9.847063 23.065177
LeftArm 13.217405 20.898887 -88.304241
LeftForeArm 5.149267 -0.000000 7.662600
LeftHand -18.838863 -0.000000 2.785354
LeftHandThumb1 -26.253704 0.000000 33.147579
Head 10.826022 0.472750 4.908419
1194
root -7.707066 32.565903 -8.748024 43.778649 10.382419 2.868205
RightUpLeg -35.198808 -10.306751 7.781427
RightLeg -6.352045 -0.000000 0.000000
RightFoot -10.734554 -0.222147 20.562599
RightToeBase 18.451585 -0.000000 -0.000000
LeftUpLeg -41.218549 2.245115 -1.560356
LeftLeg 2.726460 -0.000000 -0.000000
LeftFoot -8.167306 -8.295947 -8.590776
LeftToeBase 7.878309 -0.000000 -0.000000
Spine -45.391911 -5.002494 5.940895
RightShoulder -18.578344 4.020474 -31.649420
RightArm -7.305460 -21.843286 94.911531
RightForeArm 18.441093 -0.000000 5.058132
RightHand 15.773459 -0.000000 -8.655480
RightHandThumb1 -24.326973 -0.000000 -32.862282
LeftShoulder -8.707154 9.773844 23.046275
LeftArm 13.189072 20.907690 -88.388404
LeftForeArm 5.137103 -0.000000 7.727008
LeftHand -18.844228 0.000000 2.834087
LeftHandThumb1 -26.253704 0.000000 33.147579
Head 10.881940 0.462591 4.917500
